<svg width="28" height="27" viewBox="0 0 28 27" fill="none" xmlns="http://www.w3.org/2000/svg">
<path fill-rule="evenodd" clip-rule="evenodd" d="M9.69953 1.97573C8.26715 1.97564 7.04463 3.02288 6.80901 4.45183L6.40031 6.9304C6.31131 7.4702 5.84951 7.86581 5.30841 7.86581H4.88376C3.26543 7.86581 1.9535 9.19266 1.9535 10.8294V22.0607C1.9535 23.6974 3.26542 25.0243 4.88376 25.0243L23.1156 25.0243C24.7338 25.0243 26.0457 23.6975 26.0458 22.0608L26.0465 10.8296C26.0466 9.19277 24.7346 7.86581 23.1162 7.86581H22.7237C22.1805 7.86581 21.7175 7.46712 21.6309 6.92471L21.2386 4.46742C21.0094 3.0317 19.7839 1.97635 18.346 1.97626L9.69953 1.97573ZM4.88212 4.12682C5.27482 1.74525 7.31234 -0.000145467 9.69965 9.09325e-09L18.3461 0.000526958C20.7427 0.000672984 22.7851 1.7596 23.1671 4.15247L23.4463 5.90119C25.9897 6.07286 28.0002 8.21386 28 10.8297L27.9993 22.061C27.9992 24.7888 25.8127 27 23.1156 27L4.88376 27C2.18653 27 0 24.7886 0 22.0607V10.8294C0 8.20128 2.02951 6.05255 4.58992 5.89887L4.88212 4.12682Z" fill="white"/>
<path fill-rule="evenodd" clip-rule="evenodd" d="M13.9989 11.5993C11.9108 11.5993 10.218 13.3113 10.218 15.4232C10.218 17.5351 11.9108 19.2471 13.9989 19.2471C16.0871 19.2471 17.7799 17.5351 17.7799 15.4232C17.7799 13.3113 16.0871 11.5993 13.9989 11.5993ZM8.26453 15.4232C8.26453 12.2201 10.8319 9.62354 13.9989 9.62354C17.166 9.62354 19.7334 12.2201 19.7334 15.4232C19.7334 18.6263 17.166 21.2229 13.9989 21.2229C10.8319 21.2229 8.26453 18.6263 8.26453 15.4232Z" fill="white"/>
</svg>
