<svg width="41" height="41" viewBox="0 0 41 41" fill="none" xmlns="http://www.w3.org/2000/svg">
<path d="M15.6436 35.4846V30.2456C15.6435 28.913 16.7299 27.8302 18.0759 27.8213H23.0063C24.3587 27.8213 25.455 28.9067 25.455 30.2456V30.2456V35.5008C25.4547 36.6322 26.3668 37.5569 27.5093 37.5834H30.7963C34.0729 37.5834 36.7291 34.9537 36.7291 31.7099V31.7099V16.8064C36.7117 15.5302 36.1064 14.3319 35.0857 13.5523L23.8444 4.58747C21.8751 3.02651 19.0756 3.02651 17.1062 4.58747L5.91427 13.5686C4.88967 14.345 4.28343 15.5453 4.27081 16.8227V31.7099C4.27081 34.9537 6.92706 37.5834 10.2037 37.5834H13.4906C14.6615 37.5834 15.6107 36.6437 15.6107 35.4846V35.4846" stroke="#ADA4A5" stroke-width="1.2" stroke-linecap="round" stroke-linejoin="round"/>
</svg>
