<svg width="321" height="177" viewBox="0 0 321 177" fill="none" xmlns="http://www.w3.org/2000/svg">
<path d="M16.3008 66.5C9.27891 65.3 2.50781 71 0 74V177H321V2C316.987 14.4 304.281 24.5 298.43 28C297.385 25 293.665 20.3 287.145 25.5C280.624 30.7 262.693 36.3333 254.543 38.5C252.244 33.3333 246.142 24.5 240.123 30.5C232.6 38 218.807 44 216.926 41C215.045 38 208.775 28 200.625 34C192.475 40 181.816 46.5 174.293 46.5C166.77 46.5 162.381 39.5 158.619 35.5C154.857 31.5 151.723 39.5 148.588 42.5C145.453 45.5 144.199 46.5 141.691 44C139.184 41.5 138.557 42 136.049 44C133.541 46 128.525 50.5 117.867 56.5C107.209 62.5 105.955 50.5 100.312 46.5C94.6699 42.5 84.6387 49.5 76.4883 54.5C68.3379 59.5 67.084 59 61.4414 60C55.7988 61 52.6641 55.5 48.2754 54.5C43.8867 53.5 40.125 59.5 35.1094 66.5C30.0938 73.5 25.0781 68 16.3008 66.5Z" fill="url(#paint0_linear_17_444)"/>
<path d="M1.88824 73.5C4.39594 70.5 9.28595 65.3 16.3075 66.5C25.0844 68 30.0998 73.5 35.1152 66.5C40.1306 59.5 43.8922 53.5 48.2806 54.5C52.6691 55.5 55.8037 61 61.446 60C67.0883 59 68.3422 59.5 76.4922 54.5C84.6422 49.5 94.673 42.5 100.315 46.5C105.958 50.5 107.211 62.5 117.869 56.5C128.527 50.5 133.542 46 136.05 44C138.558 42 139.185 41.5 141.692 44C144.2 46.5 145.454 45.5 148.588 42.5C151.723 39.5 154.858 31.5 158.619 35.5C162.381 39.5 166.769 46.5 174.292 46.5C181.815 46.5 192.473 40 200.623 34C208.773 28 215.042 38 216.923 41C218.804 44 232.596 38 240.119 30.5C246.138 24.5 252.24 33.3333 254.539 38.5C262.689 36.3333 280.619 30.7 287.139 25.5C293.659 20.3 297.378 25 298.423 28C304.275 24.5 315.977 15 319.112 2" stroke="#4318FF" stroke-width="3" stroke-linecap="round" stroke-linejoin="round"/>
<defs>
<linearGradient id="paint0_linear_17_444" x1="160.5" y1="4.5" x2="160.5" y2="111" gradientUnits="userSpaceOnUse">
<stop stop-color="#E9E3FF"/>
<stop offset="1" stop-color="#E9E3FF" stop-opacity="0"/>
</linearGradient>
</defs>
</svg>
