<svg width="55" height="55" viewBox="0 0 55 55" fill="none" xmlns="http://www.w3.org/2000/svg">
<circle opacity="0.3" cx="27.5" cy="27.5" r="27.5" fill="url(#paint0_linear_12_924)"/>
<mask id="mask0_12_924" style="mask-type:alpha" maskUnits="userSpaceOnUse" x="0" y="0" width="55" height="55">
<circle cx="27.5" cy="27.5" r="27.5" fill="#C4C4C4"/>
</mask>
<g mask="url(#mask0_12_924)">
<path d="M41.1554 40.0889C41.6151 35.5192 41.1767 31.0651 40.3923 26.5671C39.9354 23.9364 39.7544 21.2672 39.852 18.6007C39.9374 16.7484 39.4618 14.9127 38.4847 13.3229C37.3686 11.4024 35.4657 9.8522 33.1268 10.1229C33.0206 10.1449 32.9108 10.1449 32.8046 10.1229C32.7187 10.0909 32.6387 10.0456 32.5676 9.98872C31.3591 9.09328 29.3661 8.82256 27.8827 8.80174C26.055 8.77072 24.2463 9.16741 22.6078 9.95864C19.84 11.3145 17.7049 13.9291 17.1575 16.9C16.9656 18.1356 16.9417 19.3905 17.0864 20.6322C17.1812 21.6618 17.3234 22.7146 17.1362 23.7234C16.8731 25.1117 16.0153 26.3102 15.4774 27.6222C14.7977 29.2571 14.4694 31.011 14.5129 32.775C14.5674 34.0383 14.9537 37.2453 16.4253 37.7034C18.4087 38.3235 20.5035 38.5202 22.5865 38.7122L28.4585 39.2583C29.4633 39.3508 30.487 39.4434 31.4657 39.2074C32.1979 39.0315 32.8733 38.6798 33.5984 38.4808C34.4984 38.2353 35.4494 38.2305 36.352 38.4669" fill="#AA4F7A"/>
<g style="mix-blend-mode:multiply" opacity="0.32">
<g style="mix-blend-mode:multiply" opacity="0.32">
<path d="M23.8142 14.5519L20.0227 15.6741C19.9536 15.6901 19.8884 15.7192 19.8307 15.7597C19.7663 15.8189 19.7196 15.8941 19.6956 15.9772C19.0448 17.5907 18.6038 19.2775 18.3828 20.9981C18.1032 23.2448 19.1506 25.4661 18.48 27.7081L17.7075 30.3806C17.3188 31.6832 16.9278 33.053 17.2335 34.3765C17.4705 35.4177 18.1032 36.3201 18.5677 37.2826C19.2657 38.7314 19.5802 40.3281 19.4824 41.9264C19.4824 41.8755 22.563 41.267 22.845 41.186C23.9953 40.8648 25.1266 40.4817 26.2336 40.0383C27.1957 39.6543 28.1294 39.1846 29.0938 38.8375C29.6697 38.6339 30.1981 38.4858 30.5962 38.0022C31.6981 36.6625 31.954 34.3001 31.9967 32.655C32.045 30.7155 31.671 28.788 30.8995 27.0001C30.3607 25.7493 29.619 24.5914 28.7028 23.5711" fill="#AA4F7A"/>
</g>
</g>
<path d="M12.1173 39.3972C9.98455 42.8008 8.67885 46.6672 7.9632 50.6006C7.65514 52.3013 7.4632 54.1269 8.26415 55.6655C9.56985 58.2107 13.1647 57.5004 15.4751 56.9936C18.9965 56.2255 23.2951 54.659 25.4989 51.7899" fill="#EA7C99"/>
<path d="M45.1983 57.2897C46.0727 54.8625 45.8808 51.813 45.6723 49.4228C45.4187 46.3709 44.7623 43.5828 43.2765 40.8247C42.1627 38.7608 40.9921 36.4887 38.8002 35.3873C37.7385 34.8528 36.5916 34.5034 35.4826 34.0476C34.1319 33.4877 32.8404 32.2868 33.2148 30.7296C33.4518 29.7 34.2101 28.8578 34.9897 28.122C35.4357 27.6812 35.8476 27.2086 36.2219 26.7083C36.2435 26.6763 36.2728 26.6501 36.3072 26.6319C36.3587 26.6196 36.413 26.6245 36.4613 26.6458C37.0461 26.828 37.6726 26.8403 38.2645 26.6814C38.8564 26.5224 39.3883 26.1989 39.7954 25.7503C40.5679 24.9174 40.7765 23.1473 40.0964 22.1848C39.5087 21.3518 38.0418 21.0649 37.1295 21.4397C37.485 19.5702 37.5513 16.9139 36.7527 15.1439C36.0087 13.4294 34.0868 12.1383 32.4446 11.3469C30.8024 10.5556 29.0062 10.4052 27.2171 10.5996C25.3379 10.8055 23.3853 11.4927 22.2953 12.999C21.8801 13.6228 21.5608 14.3025 21.3474 15.0166C20.7309 16.8169 20.2983 18.6724 20.0559 20.5559C19.8521 22.1524 19.8 24.0451 20.1483 25.6254C20.3418 26.6162 20.8374 27.5267 21.5701 28.2377C22.4825 29.0753 23.2526 29.3437 24.4943 29.5149C25.7905 29.6954 27.646 29.9406 28.2858 31.2155C29.428 33.4576 27.5749 34.5219 25.665 35.1652C21.5346 36.5535 21.6768 40.6605 21.1223 44.1705C20.8853 45.7254 20.1744 46.9818 19.6649 48.4418C19.3936 49.3312 19.2345 50.2496 19.191 51.1767C19.1459 51.695 18.909 52.4238 18.9895 52.9282C19.0748 53.4696 19.5203 53.7473 19.954 54.1013C21.2881 55.1865 22.7976 56.0588 24.2834 56.9126C25.5726 57.626 26.9327 58.2098 28.3427 58.6549C30.3119 59.3074 32.1342 60.1264 34.1769 60.5637C35.7092 60.916 37.2679 61.1481 38.8381 61.2579C41.2338 61.3944 43.4732 60.5036 44.6628 58.4142C44.874 58.0551 45.0532 57.6789 45.1983 57.2897Z" fill="#FF8DA8"/>
<g style="mix-blend-mode:multiply" opacity="0.2">
<g style="mix-blend-mode:multiply" opacity="0.2">
<path d="M31.2502 10.7198C31.5559 12.0665 31.3095 13.464 31.1507 14.8338C30.9919 16.2035 30.9374 17.6589 31.5773 18.8899C31.9949 19.6434 32.6405 20.2528 33.4259 20.635C34.2113 21.0172 35.0983 21.1535 35.9659 21.0255C35.5249 18.3756 34.6207 15.8195 33.2929 13.4686" fill="#FF8DA8"/>
</g>
</g>
<path d="M23.3778 15.0492C23.1811 14.2278 21.6408 14.8733 21.2451 15.1649C20.911 15.4078 20.4536 15.9215 20.9726 16.2431C21.4915 16.5647 22.6006 15.9493 23.0153 15.6623C23.2214 15.5119 23.4371 15.2806 23.3778 15.0492Z" fill="#843860"/>
<path d="M29.5225 14.7298C29.7192 13.9084 31.2595 14.5562 31.6553 14.8478C31.987 15.0792 32.4444 15.6021 31.9254 15.9237C31.4064 16.2453 30.2974 15.6298 29.8827 15.3429C29.6789 15.1995 29.4633 14.975 29.5225 14.7298Z" fill="#843860"/>
<path d="M38.857 61.2652C41.2527 61.4017 43.4921 60.5109 44.6817 58.4215C44.8867 58.0595 45.0596 57.681 45.1982 57.2901C46.0727 54.8629 45.8807 51.8133 45.6722 49.4232C45.4186 46.3713 44.7622 43.5831 43.2764 40.8251C42.2812 38.974 41.2361 36.9726 39.4612 35.7787C39.402 35.8134 39.3404 35.8481 39.2835 35.8851C36.0038 37.9282 33.0962 40.9315 29.2455 41.4706C26.9706 41.7876 24.6483 41.1722 22.5795 40.1911C22.3284 40.0708 22.0653 39.9458 21.7952 39.8278C21.4682 41.2161 21.3568 42.7548 21.1317 44.1801C20.8947 45.735 20.1838 46.9914 19.6743 48.4514C19.403 49.3408 19.2439 50.2592 19.2004 51.1863C19.1553 51.7046 18.9184 52.4334 18.9989 52.9378C19.0842 53.4792 19.5297 53.7569 19.9634 54.1109C21.2975 55.1961 22.807 56.0684 24.2928 56.9222C25.582 57.6356 26.9421 58.2194 28.3521 58.6645C30.3213 59.317 32.1436 60.136 34.1863 60.5733C35.7218 60.9253 37.2836 61.1567 38.857 61.2652Z" fill="#F26757"/>
<g style="mix-blend-mode:multiply" opacity="0.25">
<g style="mix-blend-mode:multiply" opacity="0.25">
<path d="M32.0369 26.9925C33.2972 26.9925 34.3189 25.9949 34.3189 24.7643C34.3189 23.5337 33.2972 22.5361 32.0369 22.5361C30.7766 22.5361 29.7549 23.5337 29.7549 24.7643C29.7549 25.9949 30.7766 26.9925 32.0369 26.9925Z" fill="#FF8DA8"/>
</g>
<g style="mix-blend-mode:multiply" opacity="0.25">
<path d="M21.5887 24.0151C21.5884 23.5307 21.4263 23.0597 21.1269 22.6734C20.8275 22.2872 20.4073 22.0068 19.9299 21.8749C19.8322 23.1289 19.9047 24.3901 20.1456 25.6255C20.1764 25.7644 20.2143 25.9032 20.2546 26.0397C20.6526 25.8629 20.99 25.578 21.2266 25.219C21.4631 24.86 21.5889 24.442 21.5887 24.0151Z" fill="#FF8DA8"/>
</g>
</g>
<path d="M45.9802 48.9278C45.801 46.9974 45.4036 45.0924 44.7953 43.2474C44.3214 41.7966 43.8901 40.0543 42.7337 38.99C40.9422 37.3403 38.4564 37.7035 36.7242 39.2931C34.4635 41.3755 35.1578 44.0665 36.2194 46.5284C36.9753 48.2822 37.8379 50.0407 37.9872 51.9357C38.0129 52.0967 37.9932 52.2614 37.9303 52.4123C37.7787 52.7016 37.3806 52.7548 37.0464 52.7548C35.3545 52.7548 33.6933 52.336 32.0535 51.9218L27.1435 50.6816C25.7098 50.3207 24.2596 49.9551 22.8662 49.4599C21.6624 51.0687 20.6653 52.8156 19.897 54.6614C22.1174 56.3851 24.4586 58.0534 27.1269 59.0298C31.1032 60.4875 36.1507 62.5838 40.5441 61.693C41.6619 61.4892 42.7049 61.0011 43.5678 60.278C44.4307 59.5549 45.083 58.6223 45.4588 57.5744C46.4849 54.8465 46.2219 51.7645 45.9802 48.9278Z" fill="#FF8DA8"/>
<path d="M34.416 33.4182C34.0577 33.1556 33.7537 32.829 33.5203 32.4557C31.9435 32.97 30.2395 32.9781 28.6577 32.4788C28.662 32.8965 28.5236 33.3036 28.2643 33.6357C30.2774 34.2711 32.4553 34.1941 34.416 33.4182Z" fill="#F7BF54"/>
<path d="M30.8399 9.88457C31.7333 10.6736 31.975 11.8767 32.0911 13.0013C32.2688 14.7459 32.2617 16.539 32.9323 18.1818C33.603 19.8246 35.1646 21.3263 37.0959 21.3841C37.2058 21.3963 37.3169 21.3744 37.4134 21.3217C37.4833 21.26 37.5328 21.1795 37.5556 21.0903C38.7855 17.8209 37.5556 13.9175 34.603 11.7287C33.5627 10.9651 32.3447 10.4052 31.1598 9.85217" fill="#AA4F7A"/>
<g style="mix-blend-mode:multiply" opacity="0.2">
<g style="mix-blend-mode:multiply" opacity="0.2">
<path d="M21.0202 16.1246C22.5155 16.5503 24.0724 16.8465 25.6293 16.747C27.1861 16.6475 28.7478 16.1269 29.8947 15.088C31.0416 14.0491 31.6838 12.4503 31.3615 10.9602C29.3505 12.4199 26.9402 13.2624 24.4373 13.3804" fill="#FF8DA8"/>
</g>
</g>
<path d="M31.4304 10.2455C31.8711 11.4048 31.3356 12.7352 30.4493 13.6376C28.9896 15.123 26.7834 15.6413 24.6839 15.8287C22.5843 16.0162 20.435 15.9491 18.4184 16.5506C18.9516 13.9222 21.1364 11.8097 23.672 10.7823C26.2076 9.75502 29.0465 9.69023 31.7716 9.98871" fill="#AA4F7A"/>
<path d="M23.916 24.3364C23.9172 24.3202 23.9172 24.304 23.916 24.2878C23.9084 24.2239 23.8879 24.1622 23.8558 24.1061C23.8236 24.0499 23.7804 24.0006 23.7287 23.9608C23.6769 23.921 23.6177 23.8916 23.5542 23.8743C23.4908 23.8569 23.4245 23.852 23.3592 23.8598L18.0392 24.4706C17.9265 24.4841 17.8219 24.5344 17.7423 24.6134C17.6627 24.6924 17.6128 24.7954 17.6008 24.9056L16.6529 33.7698C16.6396 33.8988 16.6789 34.0277 16.7623 34.1286C16.8457 34.2295 16.9665 34.2943 17.0984 34.3089H17.1529C17.2768 34.3084 17.3961 34.2632 17.488 34.1821C17.5798 34.1009 17.6377 33.9895 17.6506 33.8692L18.5629 25.3961L23.281 24.8524C23.3216 24.7141 23.4039 24.591 23.5172 24.499C23.6304 24.4069 23.7694 24.3503 23.916 24.3364Z" fill="#B9B5EC"/>
<path d="M26.9091 21.9603C26.8854 21.9603 26.8428 22.076 26.7219 22.2588C26.5458 22.5173 26.2997 22.7232 26.011 22.8534C25.8208 22.9427 25.613 22.9908 25.402 22.9945C25.165 22.9945 25.037 22.9159 25.0821 22.6799C25.1271 22.4439 25.2764 22.1893 25.3688 21.9117C25.4783 21.6251 25.5724 21.3332 25.6508 21.0371C25.9329 20.0004 26.0417 18.9261 25.9731 17.8556C25.9186 17.0342 25.774 16.5437 25.7361 16.5506C25.6982 16.5576 25.7622 17.0573 25.7645 17.8625C25.7706 18.9093 25.6368 19.9524 25.3664 20.9653C25.2835 21.2615 25.1982 21.5484 25.0987 21.8191C25.0513 21.9556 24.9968 22.0875 24.947 22.2171C24.8866 22.3521 24.8421 22.4934 24.8143 22.6382C24.7978 22.7192 24.7978 22.8025 24.8143 22.8835C24.8333 22.9731 24.8815 23.0543 24.9517 23.1149C25.0797 23.2093 25.2406 23.2508 25.3996 23.2305C25.6424 23.2146 25.8787 23.1466 26.0916 23.0316C26.4 22.8715 26.6487 22.6205 26.8025 22.3143C26.921 22.0968 26.9233 21.9649 26.9091 21.9603Z" fill="#C45673"/>
<path d="M24.1669 19.0566C24.1242 19.0566 24.091 19.4338 23.9299 20.0169C23.8409 20.3576 23.7228 20.6904 23.5768 21.0118C23.4908 21.1947 23.3843 21.3678 23.2593 21.5278C23.1446 21.6887 22.9776 21.8069 22.7853 21.8633C22.6973 21.891 22.6032 21.8948 22.513 21.8744C22.4229 21.8541 22.3401 21.8102 22.2735 21.7476C22.143 21.6009 22.0439 21.4301 21.982 21.2455C21.846 20.922 21.7452 20.5854 21.6811 20.2413C21.5815 19.649 21.6076 19.2672 21.5602 19.2626C21.5128 19.2579 21.4275 19.6397 21.4796 20.2668C21.5102 20.6347 21.5899 20.9972 21.7166 21.345C21.7839 21.5682 21.9003 21.7743 22.0578 21.9489C22.1562 22.0493 22.282 22.12 22.4204 22.1525C22.5581 22.1861 22.7021 22.1861 22.8398 22.1525C23.098 22.081 23.3231 21.925 23.4773 21.7106C23.6136 21.5263 23.7266 21.3266 23.8138 21.1159C23.9593 20.7764 24.0674 20.4227 24.1361 20.0608C24.2451 19.4454 24.2024 19.0566 24.1669 19.0566Z" fill="#C45673"/>
<path d="M31.7713 18.853C31.7263 18.853 31.7429 19.288 31.6031 19.9567C31.5221 20.3443 31.394 20.721 31.2215 21.0789C31.1247 21.2793 30.9877 21.4586 30.8187 21.6065C30.643 21.7536 30.4198 21.8355 30.1883 21.8378C30.0754 21.8286 29.9658 21.7962 29.8666 21.7428C29.7673 21.6894 29.6808 21.6161 29.6125 21.5278C29.4656 21.356 29.3479 21.1623 29.2642 20.954C29.1103 20.582 29.0013 20.1937 28.9395 19.7971C28.8329 19.1238 28.8779 18.6934 28.8329 18.6888C28.7879 18.6841 28.6789 19.1122 28.7357 19.8225C28.7754 20.2423 28.8735 20.6549 29.0272 21.0488C29.113 21.2903 29.2404 21.5156 29.404 21.7152C29.4979 21.8323 29.6161 21.9288 29.7509 21.9982C29.8857 22.0675 30.0339 22.1083 30.186 22.1178C30.4887 22.12 30.7815 22.0128 31.0083 21.817C31.2105 21.6445 31.3721 21.4314 31.4822 21.1923C31.6524 20.8086 31.7672 20.4036 31.8234 19.9891C31.8969 19.2857 31.8045 18.8507 31.7713 18.853Z" fill="#C45673"/>
<path d="M37.0464 25.94C37.0866 25.9169 36.935 25.6902 36.9136 25.2876C36.9043 25.0515 36.9413 24.8159 37.0227 24.5934C37.1238 24.3221 37.2686 24.0682 37.4516 23.8414C37.7884 23.416 38.203 23.0552 38.6743 22.7771C39.0393 22.5619 39.2904 22.4647 39.2786 22.4231C39.2667 22.3814 38.9895 22.4231 38.5795 22.6012C38.0442 22.8438 37.578 23.2108 37.2217 23.6702C37.0181 23.9237 36.8639 24.2115 36.7667 24.5194C36.6883 24.7751 36.6696 25.0447 36.7122 25.3084C36.7928 25.7619 37.025 25.9655 37.0464 25.94Z" fill="#C45673"/>
<path d="M37.3711 25.5999C37.383 25.6323 37.5489 25.6138 37.7456 25.4472C37.8689 25.3355 37.9682 25.2007 38.0373 25.0509C38.1065 24.9011 38.1443 24.7392 38.1484 24.5749C38.1541 24.2539 38.0626 23.9384 37.8854 23.6679C37.7503 23.4666 37.6318 23.3718 37.601 23.3926C37.5702 23.4134 37.6247 23.5499 37.7005 23.7559C37.8053 24.0135 37.8584 24.2885 37.8569 24.5657C37.847 24.8344 37.7564 25.0943 37.5963 25.313C37.4707 25.4819 37.3522 25.5606 37.3711 25.5999Z" fill="#C45673"/>
<path d="M23.9087 25.1393C23.8069 25.1106 23.7078 25.0734 23.6125 25.0283C23.5153 24.987 23.4329 24.9186 23.3755 24.8316C23.3674 24.8179 23.3632 24.8023 23.3632 24.7865C23.3632 24.7706 23.3674 24.7551 23.3755 24.7414C23.4009 24.6999 23.4368 24.6656 23.4798 24.6419C23.5296 24.6118 23.5959 24.5771 23.6646 24.5447L23.7689 24.4984L23.8495 24.466C23.8796 24.4459 23.9068 24.4218 23.93 24.3943C23.9466 24.3735 23.9703 24.3388 23.994 24.3017C23.9933 24.2069 23.9541 24.1162 23.885 24.0495L23.8139 24.0148L23.7831 23.9917L23.7286 23.9547C23.694 23.9303 23.6607 23.904 23.6291 23.876C23.566 23.821 23.5081 23.7606 23.4561 23.6955C23.4073 23.6339 23.3629 23.5689 23.3234 23.5012C23.2997 23.441 23.3068 23.4503 23.3234 23.4294C23.3702 23.3979 23.4253 23.3803 23.4822 23.3785C23.5532 23.3751 23.6244 23.3751 23.6954 23.3785L24.1101 23.3924C24.6196 23.3924 24.9372 23.3924 24.9395 23.3508C24.9419 23.3091 24.6315 23.2536 24.1267 23.1934L23.712 23.1472H23.5983C23.5533 23.1448 23.5082 23.1448 23.4632 23.1472C23.3537 23.1468 23.2468 23.18 23.1575 23.242C23.0964 23.2886 23.0564 23.3567 23.0462 23.4318C23.0377 23.4993 23.0501 23.5678 23.0817 23.6284C23.1245 23.717 23.1769 23.8008 23.2381 23.8783C23.299 23.9611 23.3672 24.0385 23.4419 24.1097C23.4798 24.1421 23.5201 24.1768 23.5627 24.2069L23.6267 24.2508L23.6552 24.2693L23.5462 24.3226C23.4751 24.3596 23.4063 24.3966 23.3305 24.4452C23.2484 24.4997 23.183 24.5749 23.1409 24.6627C23.1207 24.7121 23.1125 24.7654 23.117 24.8184C23.1216 24.8714 23.1387 24.9227 23.167 24.9681C23.2544 25.0886 23.3777 25.1799 23.5201 25.2296C23.5792 25.2537 23.6402 25.2731 23.7026 25.2874L23.859 25.3221C24.2571 25.4031 24.5011 25.4378 24.5106 25.4031C24.5201 25.3684 24.2879 25.2689 23.9087 25.1393Z" fill="#C45673"/>
<path d="M23.7428 34.4225L11.2972 35.1536L13.1929 50.9199C13.2132 51.086 13.2985 51.2381 13.4311 51.3442C13.5636 51.4503 13.733 51.5022 13.9038 51.489L21.8447 51.0055C22.0041 50.9959 22.1547 50.9305 22.2688 50.8213C22.3829 50.7121 22.4527 50.5663 22.4655 50.4108L23.7428 34.4225Z" fill="#F9A353"/>
<path d="M12.84 48.037L22.8615 45.2928L23.5581 36.7063L11.8661 39.9063L12.84 48.037Z" fill="#F7BF54"/>
<g style="mix-blend-mode:multiply" opacity="0.14">
<g style="mix-blend-mode:multiply" opacity="0.14">
<path d="M11.2972 35.1536L13.1929 50.9198C13.2132 51.086 13.2985 51.238 13.4311 51.3441C13.5636 51.4502 13.733 51.5022 13.9038 51.489L20.2238 51.1049C18.5352 48.7131 17.2154 46.0922 16.3067 43.326C15.4224 40.6138 15.0357 37.7704 15.1645 34.9269L11.2972 35.1536Z" fill="#F9A353"/>
</g>
</g>
<path d="M23.7539 32.9976L10.6151 33.7868C10.3225 33.8044 10.0999 34.0502 10.1179 34.3359L10.168 35.1304C10.186 35.4161 10.4378 35.6334 10.7304 35.6159L23.8692 34.8267C24.1618 34.8091 24.3844 34.5633 24.3664 34.2776L24.3163 33.4831C24.2983 33.1974 24.0465 32.9801 23.7539 32.9976Z" fill="#F7BF54"/>
<g style="mix-blend-mode:multiply" opacity="0.2">
<g style="mix-blend-mode:multiply" opacity="0.2">
<path d="M45.9802 48.9275C45.801 46.9972 45.4037 45.0921 44.7954 43.2471C44.3214 41.7964 43.8901 40.0541 42.7337 38.9897C41.4233 37.7842 39.7456 37.657 38.2598 38.2956L35.2787 43.4554C35.4532 44.5162 35.7719 45.5496 36.2266 46.5281C36.7645 47.7752 37.3545 49.027 37.7053 50.3274C39.3415 50.5979 40.9962 50.7487 42.6555 50.7785C43.8169 50.8136 44.979 50.7361 46.1248 50.5472C46.0703 49.9872 46.0252 49.4574 45.9802 48.9275Z" fill="#FF8DA8"/>
</g>
</g>
<path d="M35.9468 48.8695C39.134 49.5637 43.0559 49.3994 46.1365 47.9255C46.0464 47.0578 45.0014 44.0291 44.9042 43.7121C44.2099 41.4191 43.7194 39.0105 41.871 37.4648C40.2122 36.0581 37.9515 35.7087 36.2027 37.1548C35.812 37.4939 35.4862 37.8982 35.2406 38.3487C33.9444 40.5931 34.4681 43.8185 35.1672 46.1925C35.4231 47.0841 35.683 47.9764 35.9468 48.8695Z" fill="#DB5449"/>
<path d="M39.0962 33.3463C38.5512 32.164 39.0346 31.0187 38.345 29.8756C37.9801 29.2764 37.3166 28.7187 37.0843 28.0431C36.8758 27.4485 36.8829 26.6548 36.8261 26.0139C36.6675 24.2682 36.802 22.5089 37.2242 20.8055C37.2539 20.7153 37.2644 20.62 37.255 20.5256C37.2165 20.3971 37.1408 20.2822 37.037 20.1947C36.3217 19.4745 35.6575 18.7076 35.0488 17.8994L35.6459 21.0138C35.582 21.6524 35.4967 22.2841 35.3948 22.9319C35.223 24.1714 34.8711 25.3805 34.3497 26.5229C33.1388 29.0103 32.3734 32.2496 33.6128 34.8873C34.1222 35.9679 35.1459 36.8703 36.3569 36.9929C37.8948 37.1456 39.4517 36.0674 40.9185 36.5301C40.2195 35.5214 39.6098 34.4563 39.0962 33.3463Z" fill="#AA4F7A"/>
<path d="M23.3994 56.9634C21.2667 55.862 18.1008 53.7958 18.4657 51.0354C18.5587 50.1781 18.8049 49.3432 19.1932 48.5689C19.5226 47.9789 19.9041 47.449 19.57 46.7341C19.3496 46.2713 18.8046 45.9427 18.4183 45.6188C17.9328 45.2339 17.5101 44.779 17.1647 44.2699C17.1396 44.2404 17.1223 44.2054 17.1144 44.1678C17.1066 44.1303 17.1084 44.0914 17.1197 44.0547C17.3377 43.6775 18.8946 44.4966 19.1411 44.6493C19.8305 45.0697 20.3977 45.6561 20.788 46.3523C20.7453 46.2736 20.8141 45.9705 20.8022 45.8618C20.7718 45.7019 20.7209 45.5464 20.6506 45.399C20.5495 45.0765 20.426 44.7611 20.2809 44.455C19.9397 43.8117 19.4539 43.2564 19.051 42.6525C18.9474 42.5152 18.8762 42.3571 18.8425 42.1898C18.8265 42.1072 18.8354 42.0219 18.8683 41.9443C18.9011 41.8666 18.9564 41.8 19.0273 41.7525C19.2643 41.6206 19.551 41.8103 19.7524 41.9838C20.1908 42.3679 20.7382 42.7983 21.0036 43.3258C21.3164 43.9459 21.4918 44.684 21.7146 45.3388C21.9515 45.3874 21.6648 43.8025 21.615 43.659C21.4515 43.1801 21.4065 42.7474 21.115 42.3286C20.7359 41.7872 20.243 41.2457 20.2406 40.5886C20.2328 40.5184 20.243 40.4473 20.2703 40.3819C20.2976 40.3165 20.3411 40.2587 20.397 40.2138C20.5913 40.0958 20.8307 40.267 20.9823 40.4336C22.0605 41.6298 22.4349 43.224 22.6221 44.7766L23.243 42.4073C23.2928 42.2222 23.4113 41.9908 23.6032 42.0301C23.6645 42.0483 23.7195 42.0827 23.762 42.1296C24.2975 42.6733 24.1079 43.4693 23.9705 44.1241C23.8117 44.883 23.6909 45.6512 23.589 46.4194C23.4989 47.0927 23.352 47.7614 23.3259 48.4416C23.2951 49.0525 23.6577 49.4343 24.198 49.7351C24.4922 49.8718 24.7983 49.9826 25.1127 50.0659C25.4421 50.1793 25.7407 50.369 26.0795 50.4708" fill="#FF8DA8"/>
<path d="M41.1319 19.6767C39.1319 19.045 36.7574 18.9987 34.6792 19.008H34.6602C34.3664 16.8168 32.7645 15.1347 30.845 15.1347C29.037 15.1347 27.5275 16.6201 27.1009 18.6169C26.7997 18.3432 26.4034 18.1911 25.9919 18.1911C25.5804 18.1911 25.1842 18.3432 24.8829 18.6169C24.5227 16.5345 22.9611 14.9426 21.0914 14.9426C18.9587 14.9426 17.2264 17.0042 17.2264 19.5378C17.2264 22.0714 18.9587 24.133 21.0914 24.133C23.2241 24.133 24.9564 22.0714 24.9564 19.5378C24.9564 19.4661 24.9564 19.3967 24.9564 19.325C25.0416 19.1275 25.1851 18.9592 25.3686 18.8418C25.5522 18.7243 25.7674 18.6628 25.9869 18.6653C26.2063 18.6678 26.42 18.7341 26.6007 18.8557C26.7814 18.9773 26.9209 19.1487 27.0014 19.3481C27.0014 19.4754 26.9848 19.6026 26.9848 19.7322C26.9848 22.2774 28.7194 24.3274 30.8498 24.3274C32.9801 24.3274 34.7148 22.2635 34.7148 19.7299C34.7148 19.6489 34.7148 19.5725 34.7148 19.4985C36.2438 19.4902 37.7713 19.5969 39.2835 19.8178C39.8641 19.9034 40.4399 20.0191 41.0134 20.1487C42.2148 20.4217 42.4352 21.5624 42.4921 22.5689C42.511 22.8813 43.0134 22.8836 42.9921 22.5689C42.8902 21.2269 42.5347 20.114 41.1319 19.6767ZM21.0961 23.543C19.2952 23.543 17.8331 21.7452 17.8331 19.5355C17.8331 17.3258 19.2952 15.528 21.0961 15.528C22.8971 15.528 24.3592 17.3258 24.3592 19.5355C24.3592 21.7452 22.8947 23.543 21.0961 23.543ZM30.845 23.7374C29.0465 23.7374 27.582 21.9396 27.582 19.7299C27.582 17.5202 29.0465 15.7224 30.845 15.7224C32.6436 15.7224 34.1105 17.5202 34.1105 19.7299C34.1105 21.9396 32.646 23.7374 30.845 23.7374Z" fill="#F7BF54"/>
</g>
<defs>
<linearGradient id="paint0_linear_12_924" x1="55" y1="55" x2="-18.3036" y2="49.3277" gradientUnits="userSpaceOnUse">
<stop stop-color="#92A3FD"/>
<stop offset="1" stop-color="#9DCEFF"/>
</linearGradient>
</defs>
</svg>
