<svg width="28" height="23" viewBox="0 0 28 23" fill="none" xmlns="http://www.w3.org/2000/svg">
<path fill-rule="evenodd" clip-rule="evenodd" d="M12 4.75C13.4339 4.75 14.8356 5.17521 16.0279 5.97185C17.2201 6.76849 18.1494 7.90078 18.6981 9.22554C19.2469 10.5503 19.3904 12.008 19.1107 13.4144C18.8309 14.8208 18.1405 16.1126 17.1265 17.1265C16.1126 18.1405 14.8208 18.8309 13.4144 19.1107C12.008 19.3904 10.5503 19.2469 9.22554 18.6981C7.90078 18.1494 6.76848 17.2201 5.97184 16.0279C5.1752 14.8356 4.75 13.4339 4.75 12C4.75 11.5858 4.41421 11.25 4 11.25C3.58578 11.25 3.25 11.5858 3.25 12C3.25 13.7306 3.76318 15.4223 4.72464 16.8612C5.6861 18.3002 7.05266 19.4217 8.65152 20.0839C10.2504 20.7462 12.0097 20.9195 13.707 20.5819C15.4044 20.2442 16.9635 19.4109 18.1872 18.1872C19.4109 16.9635 20.2442 15.4044 20.5819 13.707C20.9195 12.0097 20.7462 10.2504 20.0839 8.65152C19.4217 7.05267 18.3002 5.6861 16.8612 4.72464C15.4223 3.76318 13.7306 3.25 12 3.25C11.5858 3.25 11.25 3.58579 11.25 4C11.25 4.41421 11.5858 4.75 12 4.75Z" fill="white"/>
<path fill-rule="evenodd" clip-rule="evenodd" d="M14.5303 0.46967C14.2374 0.176777 13.7626 0.176777 13.4697 0.46967L10.8232 3.11612C10.3351 3.60427 10.3351 4.39573 10.8232 4.88388L13.4697 7.53033C13.7626 7.82322 14.2374 7.82322 14.5303 7.53033C14.8232 7.23744 14.8232 6.76256 14.5303 6.46967L12.0607 4L14.5303 1.53033C14.8232 1.23744 14.8232 0.762563 14.5303 0.46967Z" fill="white"/>
</svg>
